<svg width="46" height="56" viewBox="0 0 46 56" fill="none" xmlns="http://www.w3.org/2000/svg">
<path d="M8.47204 36.3694L8.1532 36.0363L8.14455 36.029C4.82648 32.4786 3 27.8924 3 23.1125C3 12.5739 11.7506 4 22.5019 4C33.2556 4 42 12.5726 42 23.1125C42 27.8961 40.171 32.481 36.8554 36.029L36.8443 36.035L36.586 36.31L36.3377 36.5644C36.3204 36.585 36.308 36.6032 36.287 36.6165L23.9072 49.4098C23.1459 50.1965 21.8674 50.1968 21.1058 49.4104L8.71548 36.6165H8.71301C8.63145 36.539 8.55236 36.4542 8.47204 36.3694Z" fill="white"/>
<path d="M30.1837 30.8151C30.1523 30.8497 30.1221 30.8853 30.0929 30.9219C30.0815 30.9328 30.0669 30.9465 30.046 30.9658C30.0121 30.997 29.9793 31.0293 29.9474 31.0626L22.4125 38.9301C22.3771 38.967 22.3181 38.967 22.2826 38.9301L14.7387 31.0617L14.714 31.0363C14.6775 30.9995 14.6423 30.965 14.6196 30.9427L14.6158 30.939C14.6054 30.9288 14.5974 30.9209 14.5909 30.9145L14.1929 30.3952C14.0745 30.2407 13.938 30.104 13.7875 29.9871C12.3207 28.1106 11.5293 25.8282 11.5293 23.464L11.5293 23.4637C11.5285 17.5868 16.3631 12.7686 22.3445 12.7686C28.327 12.7686 33.1596 17.589 33.1596 23.464C33.1596 25.9549 32.2812 28.3572 30.6651 30.2837L30.1837 30.8151ZM14.6443 30.9846L14.6316 30.9678C14.6357 30.9731 14.64 30.9787 14.6443 30.9846Z" stroke="#6C4AF2" stroke-width="4.5" stroke-linejoin="round"/>
<path d="M6.03692 38.2874C6.25416 38.5189 6.46472 38.7597 6.69273 38.9808H6.69562L21.1542 54.2116C22.0771 55.1838 23.6264 55.1834 24.5513 54.2131C29.5974 48.9193 34.6961 43.6646 39.6482 38.2859L39.6612 38.2787C43.5454 34.0384 45.688 28.5588 45.688 22.8418C45.688 10.2454 35.4441 0 22.8462 0C10.2512 0 0 10.2468 0 22.8418C0 28.5545 2.1397 34.0355 6.02678 38.2787L6.03692 38.2874ZM22.8418 3.99131C33.2378 3.99131 41.6909 12.4502 41.6909 22.8433C41.6909 27.2704 40.1346 31.5324 37.2914 34.9301C32.5961 40.1625 27.6895 45.0974 22.8476 50.2005C18.0265 45.1247 13.0532 40.159 8.39812 34.9301C5.54904 31.528 3.99276 27.2704 3.99276 22.8433C3.99131 12.4459 12.4488 3.99131 22.8418 3.99131Z" fill="#6C4AF2"/>
</svg>
